<?xml version="1.0" encoding="UTF-8" standalone="no"?>
<!-- Created with Inkscape (http://www.inkscape.org/) -->

<svg
   xmlns:ns0="http://www.iki.fi/pav/software/textext/"
   xmlns:dc="http://purl.org/dc/elements/1.1/"
   xmlns:cc="http://creativecommons.org/ns#"
   xmlns:rdf="http://www.w3.org/1999/02/22-rdf-syntax-ns#"
   xmlns:svg="http://www.w3.org/2000/svg"
   xmlns="http://www.w3.org/2000/svg"
   xmlns:sodipodi="http://sodipodi.sourceforge.net/DTD/sodipodi-0.dtd"
   xmlns:inkscape="http://www.inkscape.org/namespaces/inkscape"
   width="744.09448819"
   height="1052.3622047"
   id="svg2"
   version="1.1"
   inkscape:version="0.48.5 r10040"
   sodipodi:docname="curve.svg">
  <sodipodi:namedview
     id="base"
     pagecolor="#ffffff"
     bordercolor="#666666"
     borderopacity="1.0"
     inkscape:pageopacity="0.0"
     inkscape:pageshadow="2"
     inkscape:zoom="2.0000001"
     inkscape:cx="255.37817"
     inkscape:cy="503.33995"
     inkscape:document-units="px"
     inkscape:current-layer="layer1"
     showgrid="false"
     inkscape:snap-global="true"
     inkscape:window-width="1211"
     inkscape:window-height="793"
     inkscape:window-x="485"
     inkscape:window-y="183"
     inkscape:window-maximized="0"
     inkscape:snap-object-midpoints="true" />
  <defs
     id="defs4">
    <marker
       style="overflow:visible;"
       id="Arrow1Lend"
       refX="0.0"
       refY="0.0"
       orient="auto"
       inkscape:stockid="Arrow1Lend">
      <path
         transform="scale(0.8) rotate(180) translate(12.5,0)"
         style="fill-rule:evenodd;stroke:#000000;stroke-width:1.0pt;"
         d="M 0.0,0.0 L 5.0,-5.0 L -12.5,0.0 L 5.0,5.0 L 0.0,0.0 z "
         id="path3764" />
    </marker>
    <marker
       style="overflow:visible;"
       id="Arrow2Lend"
       refX="0.0"
       refY="0.0"
       orient="auto"
       inkscape:stockid="Arrow2Lend">
      <path
         transform="scale(1.1) rotate(180) translate(1,0)"
         d="M 8.7185878,4.0337352 L -2.2072895,0.016013256 L 8.7185884,-4.0017078 C 6.9730900,-1.6296469 6.9831476,1.6157441 8.7185878,4.0337352 z "
         style="fill-rule:evenodd;stroke-width:0.62500000;stroke-linejoin:round;"
         id="path3782" />
    </marker>
    <marker
       style="overflow:visible;"
       id="Arrow2Lend-6"
       refX="0.0"
       refY="0.0"
       orient="auto"
       inkscape:stockid="Arrow2Lend">
      <path
         transform="scale(1.1) rotate(180) translate(1,0)"
         d="M 8.7185878,4.0337352 L -2.2072895,0.016013256 L 8.7185884,-4.0017078 C 6.9730900,-1.6296469 6.9831476,1.6157441 8.7185878,4.0337352 z "
         style="fill-rule:evenodd;stroke-width:0.62500000;stroke-linejoin:round;"
         id="path3782-9" />
    </marker>
    <marker
       style="overflow:visible;"
       id="Arrow2Lend-8"
       refX="0.0"
       refY="0.0"
       orient="auto"
       inkscape:stockid="Arrow2Lend">
      <path
         transform="scale(1.1) rotate(180) translate(1,0)"
         d="M 8.7185878,4.0337352 L -2.2072895,0.016013256 L 8.7185884,-4.0017078 C 6.9730900,-1.6296469 6.9831476,1.6157441 8.7185878,4.0337352 z "
         style="fill-rule:evenodd;stroke-width:0.62500000;stroke-linejoin:round;"
         id="path3782-3" />
    </marker>
    <marker
       style="overflow:visible"
       id="Arrow2Lend-8-0"
       refX="0"
       refY="0"
       orient="auto"
       inkscape:stockid="Arrow2Lend">
      <path
         transform="matrix(-1.1,0,0,-1.1,-1.1,0)"
         d="M 8.7185878,4.0337352 -2.2072895,0.01601326 8.7185884,-4.0017078 c -1.7454984,2.3720609 -1.7354408,5.6174519 -6e-7,8.035443 z"
         style="fill-rule:evenodd;stroke-width:0.625;stroke-linejoin:round"
         id="path3782-3-3"
         inkscape:connector-curvature="0" />
    </marker>
    <marker
       style="overflow:visible"
       id="Arrow1Lend-3"
       refX="0"
       refY="0"
       orient="auto"
       inkscape:stockid="Arrow1Lend">
      <path
         transform="matrix(-0.8,0,0,-0.8,-10,0)"
         style="fill-rule:evenodd;stroke:#000000;stroke-width:1pt"
         d="M 0,0 5,-5 -12.5,0 5,5 0,0 z"
         id="path3764-4"
         inkscape:connector-curvature="0" />
    </marker>
    <marker
       style="overflow:visible"
       id="Arrow1Lend-3-2"
       refX="0"
       refY="0"
       orient="auto"
       inkscape:stockid="Arrow1Lend">
      <path
         transform="matrix(-0.8,0,0,-0.8,-10,0)"
         style="fill-rule:evenodd;stroke:#000000;stroke-width:1pt"
         d="M 0,0 5,-5 -12.5,0 5,5 0,0 z"
         id="path3764-4-3"
         inkscape:connector-curvature="0" />
    </marker>
  </defs>
  <metadata
     id="metadata7">
    <rdf:RDF>
      <cc:Work
         rdf:about="">
        <dc:format>image/svg+xml</dc:format>
        <dc:type
           rdf:resource="http://purl.org/dc/dcmitype/StillImage" />
        <dc:title />
      </cc:Work>
    </rdf:RDF>
  </metadata>
  <g
     id="layer1"
     inkscape:groupmode="layer"
     inkscape:label="Layer 1">
    <path
       sodipodi:nodetypes="csssc"
       inkscape:connector-curvature="0"
       id="path8773"
       d="m 184.69087,528.73313 c 0,0 46.83935,-47.91983 68.23924,-44.04704 21.07789,3.81452 26.55879,20.19508 33.7984,40.35485 5.58887,15.56304 28.79568,22.20043 51.47581,11.60348 16.11213,-7.52815 59.5914,-50.53225 59.5914,-50.53225"
       style="fill:none;stroke:#000000;stroke-width:3;stroke-linecap:butt;stroke-linejoin:miter;stroke-miterlimit:4;stroke-opacity:1;stroke-dasharray:none" />
    <path
       inkscape:transform-center-y="1.0606602"
       transform="translate(134.50736,132.57197)"
       sodipodi:open="true"
       sodipodi:end="6.1980307"
       sodipodi:start="0"
       d="m 152.65553,385.14105 a 3.4821491,3.4821491 0 1 1 -0.0126,-0.29616"
       sodipodi:ry="3.4821491"
       sodipodi:rx="3.4821491"
       sodipodi:cy="385.14105"
       sodipodi:cx="149.17339"
       id="path9665"
       style="fill:#000000;fill-opacity:1;stroke-width:3;stroke-linecap:round;stroke-miterlimit:4;stroke-dasharray:none"
       sodipodi:type="arc" />
    <path
       sodipodi:nodetypes="ccc"
       inkscape:connector-curvature="0"
       id="path4031"
       d="M 283.68075,517.71302 C 297,550.11218 297,550.11218 297,550.11218 l 2,5.25"
       style="fill:none;stroke:#000000;stroke-width:1px;stroke-linecap:butt;stroke-linejoin:miter;stroke-opacity:1;marker-end:url(#Arrow1Lend-3)" />
    <path
       sodipodi:nodetypes="ccc"
       inkscape:connector-curvature="0"
       id="path4031-9"
       d="m 283.68075,517.71302 c 32.39916,-13.31925 32.39916,-13.31925 32.39916,-13.31925 l 5.25,-2"
       style="fill:none;stroke:#000000;stroke-width:1px;stroke-linecap:butt;stroke-linejoin:miter;stroke-opacity:1;marker-end:url(#Arrow1Lend-3)" />
    <path
       inkscape:connector-curvature="0"
       id="path4249"
       d="M 138.25,627.11218 C 283.68075,517.71302 283.68075,517.71302 283.68075,517.71302"
       style="fill:none;stroke:#000000;stroke-width:1px;stroke-linecap:butt;stroke-linejoin:miter;stroke-opacity:1;marker-end:url(#Arrow1Lend-3-2)" />
    <g
       id="g3128">
      <g
         id="g8745">
        <path
           inkscape:connector-curvature="0"
           id="path2987"
           d="m 138,627.50504 c 128.57143,0 134.28571,0 134.28571,0"
           style="fill:none;stroke:#000000;stroke-width:1px;stroke-linecap:round;stroke-linejoin:miter;stroke-opacity:1;marker-end:url(#Arrow2Lend)" />
        <path
           style="fill:none;stroke:#000000;stroke-width:1px;stroke-linecap:butt;stroke-linejoin:miter;stroke-opacity:1;marker-end:url(#Arrow2Lend)"
           d="m 137.86466,627.48032 c 0,-128.57143 0,-134.28571 0,-134.28571"
           id="use4205-3"
           inkscape:connector-curvature="0" />
        <path
           style="fill:none;stroke:#000000;stroke-width:1px;stroke-linecap:butt;stroke-linejoin:miter;stroke-opacity:1;marker-end:url(#Arrow2Lend)"
           d="M 137.9275,627.18948 C 255.16447,574.4059 260.375,572.05996 260.375,572.05996"
           id="use4205-3-7"
           inkscape:connector-curvature="0" />
      </g>
      <g
         ns0:preamble="/data/OpenCMISS/cm/doc/latex/texTextPreamble.ini"
         ns0:text="$x$"
         word-spacing="normal"
         letter-spacing="normal"
         font-size-adjust="none"
         font-stretch="normal"
         font-weight="normal"
         font-variant="normal"
         font-style="normal"
         stroke-miterlimit="10.433"
         xml:space="preserve"
         transform="matrix(2,0,0,-2,133.49997,2000.5)"
         id="g3063"
         style="font-style:normal;font-variant:normal;font-weight:normal;font-stretch:normal;letter-spacing:normal;word-spacing:normal;text-anchor:start;fill:none;stroke:#000000;stroke-linecap:butt;stroke-linejoin:miter;stroke-miterlimit:10.43299961;stroke-opacity:1;stroke-dasharray:none;stroke-dashoffset:0"><path
           id="path3065"
           d="m 74.189,687.45 0.006,0.03 0.007,0.03 0.009,0.03 0.009,0.04 0.011,0.03 0.011,0.04 0.014,0.05 0.014,0.04 0.016,0.05 0.018,0.05 0.019,0.05 0.02,0.05 0.023,0.04 0.024,0.05 0.025,0.05 0.028,0.05 0.029,0.05 0.031,0.05 0.034,0.05 0.035,0.04 0.037,0.04 0.04,0.04 0.042,0.04 0.044,0.04 0.046,0.03 0.049,0.03 0.025,0.01 0.026,0.01 0.026,0.01 0.027,0.01 0.028,0.01 0.028,0.01 0.029,0.01 0.03,0 0.03,0.01 0.031,0 0.032,0 0.032,0 c 0.05,0 0.289,0 0.498,-0.13 -0.279,-0.05 -0.478,-0.29 -0.478,-0.53 0,-0.16 0.109,-0.35 0.378,-0.35 0.219,0 0.537,0.18 0.537,0.58 0,0.51 -0.587,0.65 -0.925,0.65 -0.577,0 -0.925,-0.52 -1.045,-0.75 -0.248,0.65 -0.786,0.75 -1.074,0.75 -1.035,0 -1.602,-1.28 -1.602,-1.53 0,-0.1 0.099,-0.1 0.119,-0.1 0.08,0 0.11,0.02 0.13,0.11 0.338,1.06 0.995,1.3 1.333,1.3 0.189,0 0.537,-0.09 0.537,-0.66 0,-0.31 -0.169,-0.98 -0.537,-2.37 -0.159,-0.61 -0.508,-1.03 -0.945,-1.03 -0.06,0 -0.289,0 -0.498,0.13 0.249,0.05 0.468,0.26 0.468,0.54 0,0.26 -0.219,0.34 -0.368,0.34 -0.299,0 -0.547,-0.25 -0.547,-0.57 0,-0.46 0.497,-0.66 0.935,-0.66 0.656,0 1.014,0.7 1.044,0.76 0.12,-0.37 0.478,-0.76 1.075,-0.76 1.025,0 1.592,1.28 1.592,1.53 0,0.1 -0.09,0.1 -0.119,0.1 -0.09,0 -0.11,-0.04 -0.13,-0.11 -0.328,-1.06 -1.005,-1.3 -1.323,-1.3 -0.388,0 -0.547,0.32 -0.547,0.66 0,0.21 0.059,0.43 0.169,0.87 z"
           inkscape:connector-curvature="0"
           style="fill:#000000;stroke-width:0" /></g>      <g
         id="content"
         transform="matrix(2,0,0,-2,121.23598,1941.5422)"
         xml:space="preserve"
         stroke-miterlimit="10.433"
         font-style="normal"
         font-variant="normal"
         font-weight="normal"
         font-stretch="normal"
         font-size-adjust="none"
         letter-spacing="normal"
         word-spacing="normal"
         ns0:text="$y$"
         ns0:preamble="/data/OpenCMISS/cm/doc/latex/texTextPreamble.ini"
         style="font-style:normal;font-variant:normal;font-weight:normal;font-stretch:normal;letter-spacing:normal;word-spacing:normal;text-anchor:start;fill:none;stroke:#000000;stroke-linecap:butt;stroke-linejoin:miter;stroke-miterlimit:10.43299961;stroke-opacity:1;stroke-dasharray:none;stroke-dashoffset:0"><path
           style="fill:#000000;stroke-width:0"
           inkscape:connector-curvature="0"
           d="m 75.701,688.24 0.002,0 0.002,0.01 0.002,0 0.001,0.01 0.003,0.01 0.003,0.01 0.003,0.01 0.003,0.01 0.002,0.01 0.002,0.01 0.002,0.01 0.002,0.01 0.002,0 10e-4,0.01 0.002,0.01 10e-4,0 0.001,0.01 0.001,0.01 10e-4,0 0.001,0.01 0,0 0.001,0.01 10e-4,0.01 0,0.01 0.001,0.01 0,0.01 0,0.01 0,0 0,0.01 0,0 c 0,0.18 -0.139,0.27 -0.288,0.27 -0.1,0 -0.259,-0.06 -0.349,-0.21 -0.019,-0.05 -0.099,-0.35 -0.139,-0.53 -0.07,-0.26 -0.139,-0.53 -0.199,-0.8 l -0.448,-1.78 c -0.039,-0.15 -0.467,-0.85 -1.124,-0.85 -0.507,0 -0.617,0.44 -0.617,0.8 0,0.46 0.169,1.08 0.508,1.95 0.159,0.41 0.199,0.52 0.199,0.72 0,0.44 -0.319,0.81 -0.816,0.81 -0.945,0 -1.313,-1.44 -1.313,-1.53 0,-0.1 0.099,-0.1 0.119,-0.1 0.099,0 0.109,0.02 0.159,0.18 0.269,0.94 0.667,1.23 1.005,1.23 0.08,0 0.249,0 0.249,-0.32 0,-0.24 -0.1,-0.5 -0.169,-0.69 -0.398,-1.05 -0.578,-1.62 -0.578,-2.09 0,-0.88 0.627,-1.18 1.214,-1.18 0.388,0 0.727,0.17 1.005,0.45 -0.129,-0.52 -0.249,-1.01 -0.647,-1.53 -0.258,-0.34 -0.636,-0.63 -1.094,-0.63 -0.139,0 -0.587,0.03 -0.756,0.42 0.159,0 0.289,0 0.428,0.12 0.099,0.09 0.199,0.22 0.199,0.41 0,0.31 -0.269,0.34 -0.368,0.34 -0.229,0 -0.557,-0.15 -0.557,-0.64 0,-0.5 0.437,-0.87 1.054,-0.87 1.025,0 2.05,0.91 2.328,2.03 z"
           id="path3175" /></g>      <g
         style="font-style:normal;font-variant:normal;font-weight:normal;font-stretch:normal;letter-spacing:normal;word-spacing:normal;text-anchor:start;fill:none;stroke:#000000;stroke-linecap:butt;stroke-linejoin:miter;stroke-miterlimit:10.43299961;stroke-opacity:1;stroke-dasharray:none;stroke-dashoffset:0"
         ns0:preamble="/data/OpenCMISS/cm/doc/latex/texTextPreamble.ini"
         ns0:text="$z$"
         word-spacing="normal"
         letter-spacing="normal"
         font-size-adjust="none"
         font-stretch="normal"
         font-weight="normal"
         font-variant="normal"
         font-style="normal"
         stroke-miterlimit="10.433"
         xml:space="preserve"
         transform="matrix(2,0,0,-2,-8.896012,1858.1122)"
         id="g3284"><path
           id="path3286"
           d="m 72.189,685.28 0.05,0.05 0.048,0.05 0.047,0.05 0.046,0.05 0.044,0.04 0.043,0.05 0.042,0.04 0.042,0.04 0.04,0.04 0.039,0.04 0.038,0.04 0.038,0.04 0.036,0.03 0.036,0.04 0.07,0.06 0.068,0.07 0.067,0.06 0.065,0.05 0.065,0.06 0.129,0.11 0.065,0.06 0.066,0.06 c 0,0.01 0.617,0.53 0.975,0.89 0.945,0.93 1.164,1.4 1.164,1.44 0,0.1 -0.089,0.1 -0.109,0.1 -0.07,0 -0.1,-0.02 -0.149,-0.11 -0.299,-0.47 -0.508,-0.63 -0.747,-0.63 -0.238,0 -0.358,0.15 -0.507,0.31 -0.189,0.23 -0.358,0.43 -0.687,0.43 -0.746,0 -1.203,-0.92 -1.203,-1.13 0,-0.05 0.03,-0.11 0.119,-0.11 0.09,0 0.11,0.05 0.129,0.11 0.189,0.46 0.766,0.47 0.846,0.47 0.209,0 0.398,-0.07 0.627,-0.15 0.398,-0.15 0.507,-0.15 0.766,-0.15 -0.358,-0.43 -1.194,-1.14 -1.383,-1.3 l -0.895,-0.84 c -0.677,-0.66 -1.025,-1.23 -1.025,-1.3 0,-0.1 0.099,-0.1 0.119,-0.1 0.08,0 0.1,0.02 0.159,0.13 0.229,0.35 0.528,0.62 0.846,0.62 0.229,0 0.328,-0.09 0.577,-0.38 0.169,-0.21 0.348,-0.37 0.637,-0.37 0.985,0 1.562,1.26 1.562,1.53 0,0.05 -0.04,0.1 -0.119,0.1 -0.09,0 -0.11,-0.06 -0.14,-0.13 -0.229,-0.64 -0.865,-0.83 -1.194,-0.83 -0.199,0 -0.378,0.06 -0.587,0.13 -0.338,0.13 -0.487,0.16 -0.696,0.16 -0.02,0 -0.179,0 -0.269,-0.02 z"
           inkscape:connector-curvature="0"
           style="fill:#000000;stroke-width:0" /></g>    </g>
    <g
       style="font-style:normal;font-variant:normal;font-weight:normal;font-stretch:normal;letter-spacing:normal;word-spacing:normal;text-anchor:start;fill:none;stroke:#000000;stroke-linecap:butt;stroke-linejoin:miter;stroke-miterlimit:10.43299961;stroke-opacity:1;stroke-dasharray:none;stroke-dashoffset:0"
       ns0:preamble="/data/OpenCMISS/cm/doc/latex/texTextPreamble.ini"
       ns0:text="$\\vect{t}$"
       word-spacing="normal"
       letter-spacing="normal"
       font-size-adjust="none"
       font-stretch="normal"
       font-weight="normal"
       font-variant="normal"
       font-style="normal"
       stroke-miterlimit="10.433"
       xml:space="preserve"
       transform="matrix(2,0,0,-2,158.69398,1934.0422)"
       id="g3395"><path
         id="path3397"
         d="m 73.373,688.4 h 0.886 c 0.199,0 0.219,0 0.268,0.04 0.06,0.04 0.09,0.18 0.09,0.24 0,0.18 -0.169,0.18 -0.328,0.18 h -0.796 l 0.318,1.28 c 0.04,0.16 0.04,0.22 0.04,0.26 0,0.32 -0.259,0.44 -0.468,0.44 -0.149,0 -0.418,-0.07 -0.577,-0.35 -0.04,-0.08 -0.159,-0.54 -0.229,-0.81 l -0.199,-0.82 h -0.895 c -0.199,0 -0.368,0 -0.368,-0.29 0,-0.17 0.159,-0.17 0.338,-0.17 h 0.806 l -0.567,-2.27 c -0.07,-0.26 -0.169,-0.68 -0.169,-0.79 0,-0.64 0.636,-0.97 1.253,-0.97 1.184,0 1.861,1.38 1.861,1.55 0,0.14 -0.149,0.14 -0.239,0.14 -0.169,0 -0.179,-0.01 -0.249,-0.16 -0.378,-0.85 -0.935,-1.17 -1.323,-1.17 -0.09,0 -0.239,0 -0.239,0.37 0,0.18 0.03,0.3 0.06,0.42 z"
         inkscape:connector-curvature="0"
         style="fill:#000000;stroke-width:0" /></g>    <g
       id="g3506"
       transform="matrix(2,0,0,-2,181.24798,1875.5722)"
       xml:space="preserve"
       stroke-miterlimit="10.433"
       font-style="normal"
       font-variant="normal"
       font-weight="normal"
       font-stretch="normal"
       font-size-adjust="none"
       letter-spacing="normal"
       word-spacing="normal"
       ns0:text="$\\vect{n}$"
       ns0:preamble="/data/OpenCMISS/cm/doc/latex/texTextPreamble.ini"
       style="font-style:normal;font-variant:normal;font-weight:normal;font-stretch:normal;letter-spacing:normal;word-spacing:normal;text-anchor:start;fill:none;stroke:#000000;stroke-linecap:butt;stroke-linejoin:miter;stroke-miterlimit:10.43299961;stroke-opacity:1;stroke-dasharray:none;stroke-dashoffset:0"><path
         style="fill:#000000;stroke-width:0"
         inkscape:connector-curvature="0"
         d="m 73.652,688.19 -0.014,0.04 -0.017,0.05 -0.019,0.04 -0.021,0.04 -0.023,0.04 -0.025,0.04 -0.027,0.04 -0.029,0.03 -0.03,0.04 -0.033,0.03 -0.033,0.03 -0.036,0.03 -0.037,0.03 -0.038,0.03 -0.04,0.03 -0.041,0.02 -0.042,0.02 -0.043,0.02 -0.044,0.02 -0.045,0.02 -0.046,0.02 -0.047,0.02 -0.048,0.01 -0.048,0.01 -0.048,0.01 -0.049,0.01 -0.05,0.01 -0.05,0.01 -0.05,0 -0.05,0.01 -0.051,0 -0.05,0 c -0.368,0 -0.647,-0.21 -0.866,-0.56 -0.248,-0.4 -0.378,-0.94 -0.378,-0.99 0,-0.14 0.15,-0.14 0.239,-0.14 0.11,0 0.149,0 0.199,0.05 0.02,0.02 0.02,0.04 0.08,0.29 0.199,0.77 0.418,0.99 0.676,0.99 0.149,0 0.229,-0.1 0.229,-0.36 0,-0.17 -0.04,-0.33 -0.139,-0.73 -0.07,-0.28 -0.169,-0.67 -0.219,-0.89 l -0.358,-1.39 c -0.03,-0.14 -0.08,-0.33 -0.08,-0.4 0,-0.21 0.159,-0.44 0.468,-0.44 0.517,0 0.636,0.46 0.706,0.76 0.1,0.36 0.179,0.68 0.279,1.11 0.039,0.13 0.288,1.15 0.308,1.18 0.01,0.06 0.289,0.51 0.617,0.78 0.279,0.21 0.607,0.38 1.025,0.38 0.259,0 0.497,-0.1 0.497,-0.58 0,-0.57 -0.438,-1.73 -0.626,-2.23 -0.11,-0.27 -0.14,-0.34 -0.14,-0.5 0,-0.58 0.577,-0.9 1.125,-0.9 1.054,0 1.551,1.35 1.551,1.55 0,0.14 -0.149,0.14 -0.238,0.14 -0.12,0 -0.189,0 -0.229,-0.13 -0.328,-1.1 -0.866,-1.2 -1.025,-1.2 -0.069,0 -0.169,0 -0.169,0.21 0,0.23 0.1,0.47 0.199,0.72 0.159,0.41 0.617,1.57 0.617,2.13 0,0.91 -0.766,1.15 -1.483,1.15 -0.208,0 -0.935,0 -1.641,-0.75 z"
         id="path3508" /></g>    <g
       style="font-style:normal;font-variant:normal;font-weight:normal;font-stretch:normal;letter-spacing:normal;word-spacing:normal;text-anchor:start;fill:none;stroke:#000000;stroke-linecap:butt;stroke-linejoin:miter;stroke-miterlimit:10.43299961;stroke-opacity:1;stroke-dasharray:none;stroke-dashoffset:0"
       ns0:preamble="/data/OpenCMISS/cm/doc/latex/texTextPreamble.ini"
       ns0:text="$\\fnof{\\vect{r}}{\\xi}$"
       word-spacing="normal"
       letter-spacing="normal"
       font-size-adjust="none"
       font-stretch="normal"
       font-weight="normal"
       font-variant="normal"
       font-style="normal"
       stroke-miterlimit="10.433"
       xml:space="preserve"
       transform="matrix(2,0,0,-2,81.194984,1898.6722)"
       id="g3617"><path
         id="path3619"
         d="m 75.284,688.44 -0.026,0 -0.024,-0.01 -0.024,0 -0.024,-0.01 -0.022,-0.01 -0.022,-0.01 -0.021,0 -0.021,-0.01 -0.02,-0.01 -0.019,-0.01 -0.019,-0.01 -0.018,-0.01 -0.034,-0.02 -0.032,-0.03 -0.03,-0.02 -0.028,-0.03 -0.025,-0.02 -0.024,-0.03 -0.022,-0.02 -0.02,-0.03 -0.018,-0.03 -0.016,-0.03 -0.015,-0.02 -0.013,-0.03 -0.012,-0.03 -0.011,-0.03 -0.009,-0.02 -0.008,-0.03 -0.007,-0.02 -0.006,-0.03 -0.004,-0.02 -0.004,-0.02 -0.003,-0.02 -0.003,-0.02 -0.001,-0.01 -0.002,-0.02 0,-0.01 0,-0.01 c 0,-0.22 0.169,-0.46 0.497,-0.46 0.338,0 0.716,0.28 0.716,0.79 0,0.45 -0.358,0.86 -0.975,0.86 -0.557,0 -1.024,-0.28 -1.323,-0.6 -0.239,0.46 -0.806,0.6 -1.164,0.6 -0.368,0 -0.647,-0.21 -0.866,-0.56 -0.238,-0.39 -0.378,-0.93 -0.378,-0.99 0,-0.14 0.15,-0.14 0.239,-0.14 0.11,0 0.149,0 0.199,0.05 0.02,0.02 0.02,0.04 0.08,0.29 0.189,0.75 0.408,0.99 0.676,0.99 0.149,0 0.229,-0.1 0.229,-0.35 0,-0.18 -0.03,-0.29 -0.139,-0.76 -0.05,-0.17 -0.209,-0.82 -0.279,-1.07 -0.04,-0.19 -0.149,-0.64 -0.199,-0.82 -0.06,-0.25 -0.179,-0.7 -0.179,-0.77 0,-0.21 0.159,-0.44 0.468,-0.44 0.199,0 0.547,0.12 0.656,0.53 0.01,0.03 0.687,2.73 0.697,2.79 0.04,0.15 0.04,0.17 0.169,0.32 0.229,0.28 0.597,0.57 1.094,0.57 0.249,0 0.359,-0.11 0.389,-0.14 z"
         inkscape:connector-curvature="0"
         style="fill:#000000;stroke-width:0" /><path
         id="path3621"
         d="m 81.405,682.07 0,0 0,0.01 0,0 -0.001,0 -10e-4,0.01 0,0 -0.002,0 -10e-4,0.01 -0.002,0 -0.002,0 -0.002,0.01 -0.003,0 -0.003,0.01 -0.004,0 -0.004,0.01 -0.005,0.01 -0.005,0 -0.006,0.01 -0.003,0 -0.004,0.01 -0.003,0 -0.004,0.01 -0.004,0 -0.004,0 -0.004,0.01 -0.004,0 -0.005,0.01 -0.004,0 -0.005,0.01 -0.006,0.01 -0.005,0 -0.005,0.01 -0.006,0 -0.006,0.01 -0.006,0 -0.007,0.01 -0.006,0.01 -0.007,0.01 -0.007,0 -0.008,0.01 -0.007,0.01 -0.008,0 c -1.244,1.26 -1.562,3.13 -1.562,4.65 0,1.73 0.378,3.46 1.602,4.7 0.129,0.12 0.129,0.14 0.129,0.17 0,0.07 -0.04,0.1 -0.099,0.1 -0.1,0 -0.995,-0.67 -1.582,-1.94 -0.508,-1.09 -0.627,-2.19 -0.627,-3.03 0,-0.77 0.109,-1.97 0.657,-3.09 0.597,-1.23 1.452,-1.87 1.552,-1.87 0.059,0 0.099,0.03 0.099,0.1 z"
         inkscape:connector-curvature="0"
         style="fill:#000000;stroke-width:0" /><path
         id="path3623"
         d="m 83.518,687.49 -0.099,-0.07 -0.094,-0.07 -0.09,-0.07 -0.084,-0.07 -0.08,-0.07 -0.076,-0.07 -0.071,-0.07 -0.067,-0.07 -0.063,-0.08 -0.059,-0.07 -0.055,-0.07 -0.051,-0.07 -0.047,-0.08 -0.044,-0.07 -0.041,-0.07 -0.037,-0.07 -0.034,-0.06 -0.031,-0.07 -0.028,-0.07 -0.026,-0.06 -0.022,-0.06 -0.02,-0.07 -0.018,-0.05 -0.015,-0.06 -0.013,-0.06 -0.011,-0.05 -0.009,-0.05 -0.007,-0.05 -0.005,-0.04 -0.003,-0.04 -0.002,-0.04 -10e-4,-0.04 c 0,-0.47 0.268,-0.75 0.288,-0.78 0.319,-0.33 0.408,-0.37 1.154,-0.65 l 1.204,-0.46 c 0.15,-0.07 0.349,-0.14 0.349,-0.43 0,-0.23 -0.18,-0.53 -0.488,-0.53 -0.438,0 -0.766,0.24 -0.876,0.32 -0.059,0.04 -0.069,0.05 -0.109,0.05 -0.08,0 -0.1,-0.07 -0.1,-0.11 0,-0.12 0.528,-0.48 1.085,-0.48 0.617,0 1.035,0.58 1.035,1.07 0,0.47 -0.368,0.65 -0.478,0.7 -0.139,0.05 -0.477,0.18 -0.607,0.23 -0.199,0.08 -0.398,0.16 -0.607,0.23 l -0.597,0.24 c -0.447,0.18 -0.746,0.46 -0.746,0.88 0,0.41 0.388,1.27 1.224,1.69 0.368,-0.13 0.667,-0.13 0.876,-0.13 0.298,0 0.925,0 0.925,0.31 0,0.25 -0.428,0.27 -0.816,0.27 l -0.01,-0.22 c 0.348,0 0.388,-0.01 0.567,-0.06 -0.079,-0.04 -0.179,-0.08 -0.637,-0.08 -0.229,0 -0.318,0 -0.497,0.08 h 0 c 0.229,0.06 0.448,0.06 0.567,0.06 l 0.01,0.22 c -0.179,0 -0.468,0 -0.836,-0.12 -0.258,0.26 -0.298,0.58 -0.298,0.77 0,0.56 0.358,1.33 1.104,1.69 0.179,-0.22 0.408,-0.22 0.637,-0.22 0.249,0 0.885,0 0.885,0.31 0,0.26 -0.437,0.27 -0.825,0.27 l 0.01,-0.22 c 0.338,0 0.378,-0.01 0.557,-0.06 -0.08,-0.03 -0.179,-0.08 -0.617,-0.08 -0.189,0 -0.309,0 -0.418,0.09 h 0 c 0.159,0.05 0.368,0.05 0.478,0.05 l -0.01,0.22 c -0.13,0 -0.369,0 -0.627,-0.05 -0.03,0.09 -0.05,0.16 -0.05,0.33 0,0.14 0.05,0.35 0.05,0.37 0,0.08 -0.05,0.13 -0.12,0.13 -0.179,0 -0.179,-0.46 -0.179,-0.49 0,-0.2 0.06,-0.35 0.07,-0.39 -1.065,-0.3 -1.741,-1.09 -1.741,-1.86 0,-0.36 0.179,-0.78 0.646,-1.05 z"
         inkscape:connector-curvature="0"
         style="fill:#000000;stroke-width:0" /><path
         id="path3625"
         d="m 89.678,686.93 0,0.08 -10e-4,0.07 -0.002,0.08 -0.002,0.08 -0.008,0.17 -0.012,0.18 -0.017,0.18 -0.021,0.19 -0.027,0.19 -0.033,0.2 -0.039,0.21 -0.046,0.2 -0.054,0.21 -0.061,0.21 -0.07,0.22 -0.078,0.21 -0.043,0.11 -0.045,0.1 -0.047,0.11 -0.05,0.1 c -0.597,1.23 -1.453,1.87 -1.552,1.87 -0.06,0 -0.1,-0.04 -0.1,-0.1 0,-0.03 0,-0.05 0.189,-0.23 0.975,-0.98 1.542,-2.56 1.542,-4.64 0,-1.69 -0.368,-3.44 -1.602,-4.69 -0.129,-0.12 -0.129,-0.14 -0.129,-0.17 0,-0.06 0.04,-0.1 0.1,-0.1 0.099,0 0.995,0.67 1.581,1.94 0.508,1.09 0.627,2.19 0.627,3.02 z"
         inkscape:connector-curvature="0"
         style="fill:#000000;stroke-width:0" /></g>  </g>
</svg>
