<?xml version="1.0" encoding="UTF-8" standalone="no"?>
<!-- Created with Inkscape (http://www.inkscape.org/) -->

<svg
   xmlns:ns0="http://www.iki.fi/pav/software/textext/"
   xmlns:dc="http://purl.org/dc/elements/1.1/"
   xmlns:cc="http://creativecommons.org/ns#"
   xmlns:rdf="http://www.w3.org/1999/02/22-rdf-syntax-ns#"
   xmlns:svg="http://www.w3.org/2000/svg"
   xmlns="http://www.w3.org/2000/svg"
   xmlns:sodipodi="http://sodipodi.sourceforge.net/DTD/sodipodi-0.dtd"
   xmlns:inkscape="http://www.inkscape.org/namespaces/inkscape"
   width="603.09906"
   height="482.68668"
   id="svg2"
   version="1.1"
   inkscape:version="0.48.5 r10040"
   sodipodi:docname="configurationsetting.svg">
  <sodipodi:namedview
     id="base"
     pagecolor="#ffffff"
     bordercolor="#666666"
     borderopacity="1.0"
     inkscape:pageopacity="0.0"
     inkscape:pageshadow="2"
     inkscape:zoom="0.7"
     inkscape:cx="360.96274"
     inkscape:cy="222.8265"
     inkscape:document-units="px"
     inkscape:current-layer="layer1"
     showgrid="false"
     inkscape:window-width="1213"
     inkscape:window-height="866"
     inkscape:window-x="702"
     inkscape:window-y="133"
     inkscape:window-maximized="0"
     fit-margin-top="0"
     fit-margin-left="0"
     fit-margin-right="0"
     fit-margin-bottom="0" />
  <defs
     id="defs4">
    <marker
       inkscape:stockid="Arrow1Lend"
       orient="auto"
       refY="0"
       refX="0"
       id="Arrow1Lend"
       style="overflow:visible">
      <path
         inkscape:connector-curvature="0"
         id="path4237"
         d="M 0,0 5,-5 -12.5,0 5,5 0,0 z"
         style="fill-rule:evenodd;stroke:#000000;stroke-width:1pt"
         transform="matrix(-0.8,0,0,-0.8,-10,0)" />
    </marker>
    <marker
       inkscape:stockid="Arrow2Lend"
       orient="auto"
       refY="0"
       refX="0"
       id="Arrow2Lend"
       style="overflow:visible">
      <path
         id="path3782"
         style="fill-rule:evenodd;stroke-width:0.625;stroke-linejoin:round"
         d="M 8.7185878,4.0337352 -2.2072895,0.01601326 8.7185884,-4.0017078 c -1.7454984,2.3720609 -1.7354408,5.6174519 -6e-7,8.035443 z"
         transform="matrix(-1.1,0,0,-1.1,-1.1,0)"
         inkscape:connector-curvature="0" />
    </marker>
    <marker
       inkscape:stockid="Arrow2Lend"
       orient="auto"
       refY="0"
       refX="0"
       id="marker3152"
       style="overflow:visible">
      <path
         id="path3154"
         style="fill-rule:evenodd;stroke-width:0.625;stroke-linejoin:round"
         d="M 8.7185878,4.0337352 -2.2072895,0.01601326 8.7185884,-4.0017078 c -1.7454984,2.3720609 -1.7354408,5.6174519 -6e-7,8.035443 z"
         transform="matrix(-1.1,0,0,-1.1,-1.1,0)"
         inkscape:connector-curvature="0" />
    </marker>
    <marker
       inkscape:stockid="Arrow2Lend"
       orient="auto"
       refY="0"
       refX="0"
       id="marker3156"
       style="overflow:visible">
      <path
         id="path3158"
         style="fill-rule:evenodd;stroke-width:0.625;stroke-linejoin:round"
         d="M 8.7185878,4.0337352 -2.2072895,0.01601326 8.7185884,-4.0017078 c -1.7454984,2.3720609 -1.7354408,5.6174519 -6e-7,8.035443 z"
         transform="matrix(-1.1,0,0,-1.1,-1.1,0)"
         inkscape:connector-curvature="0" />
    </marker>
    <marker
       inkscape:stockid="Arrow1Lend"
       orient="auto"
       refY="0"
       refX="0"
       id="Arrow1Lend-8"
       style="overflow:visible">
      <path
         id="path4237-9"
         d="M 0,0 5,-5 -12.5,0 5,5 0,0 z"
         style="fill-rule:evenodd;stroke:#000000;stroke-width:1pt"
         transform="matrix(-0.8,0,0,-0.8,-10,0)"
         inkscape:connector-curvature="0" />
    </marker>
  </defs>
  <metadata
     id="metadata7">
    <rdf:RDF>
      <cc:Work
         rdf:about="">
        <dc:format>image/svg+xml</dc:format>
        <dc:type
           rdf:resource="http://purl.org/dc/dcmitype/StillImage" />
        <dc:title />
      </cc:Work>
    </rdf:RDF>
  </metadata>
  <g
     transform="translate(-88.328057,-249.64488)"
     id="layer1"
     inkscape:groupmode="layer"
     inkscape:label="Layer 1">
    <path
       style="fill:none;stroke:#000000;stroke-width:2;stroke-linecap:butt;stroke-linejoin:miter;stroke-miterlimit:4;stroke-opacity:1;stroke-dasharray:none"
       d="m 133.14286,526.64789 c 16.90214,-15.30594 37.20304,-32.3536 59.99999,-32.85714 31.29804,-0.69131 67.48694,15.01179 84.28572,41.42857 13.5453,21.30054 15.3086,54.63034 1.42857,75.71429 -13.85779,21.05016 -57.6236,6.61757 -70,28.57143 -8.9964,15.95825 16.20732,37.63356 8.57143,54.28571 -9.80446,21.38131 -36.71798,40.49484 -60,37.14286 -30.37432,-4.37308 -50.4674,-39.90828 -61.428574,-68.57143 -9.69507,-25.35232 -8.02192,-55.49821 0,-81.42857 6.479944,-20.94603 20.890824,-39.56848 37.142864,-54.28572 z"
       id="path3261"
       inkscape:connector-curvature="0"
       sodipodi:nodetypes="aaaaaaaaaa" />
    <path
       style="fill:none;stroke:#000000;stroke-width:2;stroke-linecap:butt;stroke-linejoin:miter;stroke-miterlimit:4;stroke-opacity:1;stroke-dasharray:none"
       d="m 428.62217,617.07608 c 1.06113,-13.6203 3.71151,-29.42451 25.88317,-39.42995 30.43956,-13.73652 82.62982,-22.76554 126.55357,-19.01248 35.41687,3.0262 71.49451,16.11154 79.39146,30.83299 7.88427,14.69787 -50.53905,27.51054 -40.24971,41.94714 7.47932,10.49398 54.88597,8.66597 64.43398,18.8635 12.25966,13.0936 5.15502,32.59742 -21.46979,41.20997 -34.73541,11.23615 -91.32805,5.1115 -131.75483,-2.0831 -35.75714,-6.36357 -65.13565,-19.60324 -83.85407,-33.82023 -15.12033,-11.4842 -19.95408,-25.41141 -18.93378,-38.50784 z"
       id="path3261-4"
       inkscape:connector-curvature="0"
       sodipodi:nodetypes="aaaaaaaaaa" />
    <g
       id="g3332"
       transform="matrix(2,0,0,-2,26.429873,1884.4718)"
       xml:space="preserve"
       stroke-miterlimit="10.433"
       font-style="normal"
       font-variant="normal"
       font-weight="normal"
       font-stretch="normal"
       font-size-adjust="none"
       letter-spacing="normal"
       word-spacing="normal"
       ns0:text="$\\manifold{B}$"
       ns0:preamble="/data/OpenCMISS/cm/doc/latex/texTextPreamble.ini"
       style="font-style:normal;font-variant:normal;font-weight:normal;font-stretch:normal;letter-spacing:normal;word-spacing:normal;text-anchor:start;fill:none;stroke:#000000;stroke-linecap:butt;stroke-linejoin:miter;stroke-miterlimit:10.43299961;stroke-opacity:1;stroke-dasharray:none;stroke-dashoffset:0"><path
         style="fill:#000000;stroke-width:0"
         inkscape:connector-curvature="0"
         d="m 82.290429,656.68 0.056,0 0.056,0.01 0.056,0.01 0.057,0.01 0.057,0.01 0.058,0.02 0.059,0.02 0.059,0.02 0.06,0.02 0.061,0.03 0.062,0.03 0.064,0.03 0.064,0.04 0.067,0.04 0.067,0.04 0.069,0.05 0.071,0.05 0.073,0.05 0.074,0.05 0.077,0.06 0.078,0.06 0.081,0.06 0.083,0.07 0.086,0.07 0.088,0.07 0.09,0.07 0.094,0.08 0.096,0.08 0.099,0.08 0.102,0.08 0.105,0.09 0.108,0.09 c 0.15,0.38 0.219,0.58 0.219,1.01 0,0.93 -0.656,1.58 -1.751,1.58 l 0.886,0.62 -0.279,0.09 c -0.845,-0.58 -1.293,-0.69 -2.268,-1.04 l -0.02,-0.25 c 0.249,0.11 0.517,0.16 0.786,0.16 0.915,0 1.801,-0.67 1.801,-1.65 0,-0.64 -0.368,-1.37 -1.115,-1.37 -0.776,0 -1.89,0.79 -2.964,0.79 l 1.164,0.9 c 0.189,0.37 0.288,0.76 0.328,1.17 l 0.02,0.25 h 0 c 0.01,0.14 0.02,0.35 0.02,0.48 0,0.43 -0.04,0.99 -0.1,1.24 0.169,0.53 0.508,1.1 1.214,1.1 0.418,0 0.657,-0.27 0.756,-0.93 0.04,-0.3 0.14,-0.74 0.378,-0.85 l 0.279,-0.09 c 0.318,0.23 0.656,0.33 1.025,0.48 v 0.22 c -0.14,-0.05 -0.289,-0.09 -0.438,-0.11 -0.627,0 -0.478,1.29 -0.776,1.59 -0.169,0.17 -0.408,0.21 -0.637,0.21 -0.756,0 -1.502,-0.53 -2.01,-1.06 -0.268,0.55 -0.855,1.11 -1.432,1.11 -0.926,0 -1.582,-0.62 -1.821,-0.86 -0.279,-0.28 -0.507,-0.57 -0.507,-0.97 0,-0.68 0.845,-1.31 0.845,-1.59 0,-0.33 -0.368,-0.66 -0.637,-0.81 l 0.15,-0.11 c 0.328,0.16 1.223,0.62 1.223,1.34 0,0.46 -0.885,1.18 -0.885,1.51 0,0.59 0.398,0.86 0.965,0.86 0.627,0 1.572,-0.64 1.572,-2.25 0,-0.46 -0.04,-1.17 -0.07,-1.49 -0.029,-0.27 -0.219,-0.84 -1.462,-1.56 l -1.234,-0.73 0.119,-0.21 c 0.418,0.26 0.916,0.48 1.423,0.48 0.786,0 1.791,-0.75 2.856,-0.75 z"
         id="path3334" /></g>    <g
       style="font-style:normal;font-variant:normal;font-weight:normal;font-stretch:normal;letter-spacing:normal;word-spacing:normal;text-anchor:start;fill:none;stroke:#000000;stroke-linecap:butt;stroke-linejoin:miter;stroke-miterlimit:10.43299961;stroke-opacity:1;stroke-dasharray:none;stroke-dashoffset:0"
       ns0:preamble="/data/OpenCMISS/cm/doc/latex/texTextPreamble.ini"
       ns0:text="$\\fnof{\\phi_{t}}{\\manifold{B}}$"
       word-spacing="normal"
       letter-spacing="normal"
       font-size-adjust="none"
       font-stretch="normal"
       font-weight="normal"
       font-variant="normal"
       font-style="normal"
       stroke-miterlimit="10.433"
       xml:space="preserve"
       transform="matrix(2,0,0,-2,390.59128,2001.5999)"
       id="g3401"><path
         style="fill:#000000;stroke-width:0"
         inkscape:connector-curvature="0"
         id="path3403"
         d="m 75.214,691.11 0,0 0,0 0,0 0,0 0,0 0.001,0 0,0.01 0,0 10e-4,0 0.001,0.01 0,0 0.001,0.01 0.002,0 0.001,0.01 10e-4,0 0.001,0.01 0.002,0 0.001,0.01 0.003,0.01 0.003,0.01 0.001,0.01 10e-4,0 0.002,0.01 10e-4,0 0.001,0.01 0.001,0 10e-4,0.01 0.001,0 0.001,0 0,0.01 0,0 10e-4,0 0,0 0,0 0,0 0.001,0 0,0 0,0.01 0,0 c 0,0.01 0,0.09 -0.12,0.09 -0.099,0 -0.109,-0.02 -0.149,-0.19 l -0.577,-2.3 c -1.582,-0.05 -3.044,-1.37 -3.044,-2.72 0,-0.94 0.696,-1.73 1.91,-1.8 l 0.049,0.22 c -0.597,0.03 -1.313,0.38 -1.313,1.37 0,1.19 0.856,2.58 2.338,2.71 l -1.025,-4.08 -0.049,-0.22 c -0.08,-0.31 -0.149,-0.62 -0.229,-0.93 -0.12,-0.47 -0.219,-0.85 -0.219,-0.88 0,-0.1 0.07,-0.11 0.119,-0.11 0.05,0 0.07,0.01 0.1,0.04 0.02,0.02 0.08,0.26 0.109,0.4 l 0.378,1.48 0.05,0.22 1.025,4.08 c 0.756,-0.04 1.323,-0.49 1.323,-1.37 0,-1.17 -0.855,-2.59 -2.348,-2.71 l -0.05,-0.22 c 1.602,0.05 3.045,1.39 3.045,2.72 0,0.79 -0.527,1.7 -1.91,1.8 z" /><path
         style="fill:#000000;stroke-width:0"
         inkscape:connector-curvature="0"
         id="path3405"
         d="m 78.515,685.7 h 0.711 c 0.132,0 0.222,0 0.222,0.16 0,0.09 -0.09,0.09 -0.208,0.09 h -0.662 l 0.258,1.03 c 0.007,0.04 0.02,0.07 0.02,0.1 0,0.13 -0.097,0.22 -0.236,0.22 -0.174,0 -0.279,-0.12 -0.328,-0.3 -0.048,-0.17 0.042,0.16 -0.264,-1.05 h -0.711 c -0.132,0 -0.223,0 -0.223,-0.15 0,-0.1 0.084,-0.1 0.209,-0.1 h 0.662 l -0.411,-1.64 c -0.042,-0.17 -0.104,-0.42 -0.104,-0.51 0,-0.41 0.348,-0.66 0.745,-0.66 0.773,0 1.212,0.97 1.212,1.06 0,0.09 -0.091,0.09 -0.112,0.09 -0.083,0 -0.09,-0.01 -0.146,-0.13 -0.195,-0.44 -0.55,-0.83 -0.933,-0.83 -0.146,0 -0.244,0.09 -0.244,0.34 0,0.07 0.028,0.22 0.042,0.29 z" /><path
         style="fill:#000000;stroke-width:0"
         inkscape:connector-curvature="0"
         id="path3407"
         d="m 85.263,682.07 0,0 0,0.01 0,0 -0.001,0 -0.001,0.01 0,0 -0.002,0 -0.001,0.01 -0.002,0 -0.002,0 -0.002,0.01 -0.003,0 -0.003,0.01 -0.004,0 -0.004,0.01 -0.005,0.01 -0.005,0 -0.006,0.01 -0.003,0 -0.004,0.01 -0.003,0 -0.004,0.01 -0.004,0 -0.004,0 -0.004,0.01 -0.004,0 -0.005,0.01 -0.004,0 -0.005,0.01 -0.006,0.01 -0.005,0 -0.005,0.01 -0.006,0 -0.006,0.01 -0.006,0 -0.007,0.01 -0.006,0.01 -0.007,0.01 -0.007,0 -0.008,0.01 -0.007,0.01 -0.008,0 c -1.244,1.26 -1.562,3.13 -1.562,4.65 0,1.73 0.378,3.46 1.602,4.7 0.129,0.12 0.129,0.14 0.129,0.17 0,0.07 -0.04,0.1 -0.099,0.1 -0.1,0 -0.995,-0.67 -1.582,-1.94 -0.508,-1.09 -0.627,-2.19 -0.627,-3.03 0,-0.77 0.109,-1.97 0.657,-3.09 0.597,-1.23 1.452,-1.87 1.552,-1.87 0.059,0 0.099,0.03 0.099,0.1 z" /><path
         style="fill:#000000;stroke-width:0"
         inkscape:connector-curvature="0"
         id="path3409"
         d="m 91.198,684.18 0.056,0 0.056,0.01 0.056,0.01 0.057,0.01 0.057,0.01 0.058,0.02 0.059,0.02 0.059,0.02 0.06,0.02 0.061,0.03 0.062,0.03 0.064,0.03 0.064,0.04 0.067,0.04 0.067,0.04 0.069,0.05 0.071,0.05 0.073,0.05 0.074,0.05 0.077,0.06 0.078,0.06 0.081,0.06 0.083,0.07 0.086,0.07 0.088,0.07 0.09,0.07 0.094,0.08 0.096,0.08 0.099,0.08 0.102,0.08 0.105,0.09 0.109,0.09 c 0.149,0.38 0.218,0.58 0.218,1.01 0,0.93 -0.656,1.58 -1.751,1.58 l 0.886,0.62 -0.279,0.09 c -0.845,-0.58 -1.293,-0.69 -2.268,-1.04 l -0.02,-0.25 c 0.249,0.11 0.517,0.16 0.786,0.16 0.915,0 1.801,-0.67 1.801,-1.65 0,-0.64 -0.368,-1.37 -1.114,-1.37 -0.777,0 -1.891,0.79 -2.965,0.79 l 1.164,0.9 c 0.189,0.37 0.288,0.76 0.328,1.17 l 0.02,0.25 h 0 c 0.01,0.14 0.02,0.35 0.02,0.48 0,0.43 -0.04,0.99 -0.1,1.24 0.169,0.53 0.508,1.1 1.214,1.1 0.418,0 0.657,-0.27 0.756,-0.93 0.04,-0.3 0.139,-0.74 0.378,-0.85 l 0.279,-0.09 c 0.318,0.23 0.657,0.33 1.025,0.48 v 0.22 c -0.14,-0.05 -0.289,-0.09 -0.438,-0.11 -0.627,0 -0.478,1.29 -0.776,1.59 -0.169,0.17 -0.408,0.21 -0.637,0.21 -0.756,0 -1.502,-0.53 -2.01,-1.06 -0.268,0.55 -0.855,1.11 -1.432,1.11 -0.926,0 -1.582,-0.62 -1.821,-0.86 -0.279,-0.28 -0.508,-0.57 -0.508,-0.97 0,-0.68 0.846,-1.31 0.846,-1.59 0,-0.33 -0.368,-0.66 -0.637,-0.81 l 0.15,-0.11 c 0.328,0.16 1.223,0.62 1.223,1.34 0,0.46 -0.885,1.18 -0.885,1.51 0,0.59 0.398,0.86 0.965,0.86 0.627,0 1.572,-0.64 1.572,-2.25 0,-0.46 -0.04,-1.17 -0.07,-1.49 -0.029,-0.27 -0.219,-0.84 -1.462,-1.56 l -1.234,-0.73 0.12,-0.21 c 0.417,0.26 0.915,0.48 1.422,0.48 0.786,0 1.791,-0.75 2.856,-0.75 z" /><path
         style="fill:#000000;stroke-width:0"
         inkscape:connector-curvature="0"
         id="path3411"
         d="m 97.526,686.93 0,0.08 -10e-4,0.07 -0.002,0.08 -0.002,0.08 -0.008,0.17 -0.012,0.18 -0.017,0.18 -0.021,0.19 -0.027,0.19 -0.033,0.2 -0.039,0.21 -0.046,0.2 -0.054,0.21 -0.061,0.21 -0.07,0.22 -0.078,0.21 -0.043,0.11 -0.045,0.1 -0.047,0.11 -0.05,0.1 c -0.597,1.23 -1.453,1.87 -1.552,1.87 -0.06,0 -0.1,-0.04 -0.1,-0.1 0,-0.03 0,-0.05 0.189,-0.23 0.975,-0.98 1.542,-2.56 1.542,-4.64 0,-1.69 -0.368,-3.44 -1.602,-4.69 -0.129,-0.12 -0.129,-0.14 -0.129,-0.17 0,-0.06 0.04,-0.1 0.1,-0.1 0.099,0 0.994,0.67 1.581,1.94 0.508,1.09 0.627,2.19 0.627,3.02 z" /></g>    <path
       style="fill:none;stroke:#000000;stroke-width:1px;stroke-linecap:butt;stroke-linejoin:miter;stroke-opacity:1;marker-end:url(#Arrow1Lend)"
       d="m 267.14286,568.07647 c 0,0 69.74122,-36.97645 107.14286,-34.28571 41.20971,2.96469 111.42857,54.28571 111.42857,54.28571"
       id="path3442"
       inkscape:connector-curvature="0"
       sodipodi:nodetypes="cac" />
    <g
       id="g4745"
       transform="matrix(2,0,0,-2,230.62657,1890.0894)"
       xml:space="preserve"
       stroke-miterlimit="10.433"
       font-style="normal"
       font-variant="normal"
       font-weight="normal"
       font-stretch="normal"
       font-size-adjust="none"
       letter-spacing="normal"
       word-spacing="normal"
       ns0:text="$\\phi_{t}$"
       ns0:preamble="/data/OpenCMISS/cm/doc/latex/texTextPreamble.ini"
       style="font-style:normal;font-variant:normal;font-weight:normal;font-stretch:normal;letter-spacing:normal;word-spacing:normal;text-anchor:start;fill:none;stroke:#000000;stroke-linecap:butt;stroke-linejoin:miter;stroke-miterlimit:10.43299961;stroke-opacity:1;stroke-dasharray:none;stroke-dashoffset:0"><path
         style="fill:#000000;stroke-width:0"
         inkscape:connector-curvature="0"
         d="m 75.214,691.11 0,0 0,0 0,0 0,0 0,0 0.001,0 0,0.01 0,0 10e-4,0 0.001,0.01 0,0 0.001,0.01 0.002,0 0.001,0.01 10e-4,0 0.001,0.01 0.002,0 0.001,0.01 0.003,0.01 0.003,0.01 0.001,0.01 10e-4,0 0.002,0.01 10e-4,0 0.001,0.01 0.001,0 10e-4,0.01 0.001,0 0.001,0 0,0.01 0,0 10e-4,0 0,0 0,0 0,0 0.001,0 0,0 0,0.01 0,0 c 0,0.01 0,0.09 -0.12,0.09 -0.099,0 -0.109,-0.02 -0.149,-0.19 l -0.577,-2.3 c -1.582,-0.05 -3.044,-1.37 -3.044,-2.72 0,-0.94 0.696,-1.73 1.91,-1.8 l 0.049,0.22 c -0.597,0.03 -1.313,0.38 -1.313,1.37 0,1.19 0.856,2.58 2.338,2.71 l -1.025,-4.08 -0.049,-0.22 c -0.08,-0.31 -0.149,-0.62 -0.229,-0.93 -0.12,-0.47 -0.219,-0.85 -0.219,-0.88 0,-0.1 0.07,-0.11 0.119,-0.11 0.05,0 0.07,0.01 0.1,0.04 0.02,0.02 0.08,0.26 0.109,0.4 l 0.378,1.48 0.05,0.22 1.025,4.08 c 0.756,-0.04 1.323,-0.49 1.323,-1.37 0,-1.17 -0.855,-2.59 -2.348,-2.71 l -0.05,-0.22 c 1.602,0.05 3.045,1.39 3.045,2.72 0,0.79 -0.527,1.7 -1.91,1.8 z"
         id="path4747" /><path
         style="fill:#000000;stroke-width:0"
         inkscape:connector-curvature="0"
         d="m 78.515,685.7 h 0.711 c 0.132,0 0.222,0 0.222,0.16 0,0.09 -0.09,0.09 -0.208,0.09 h -0.662 l 0.258,1.03 c 0.007,0.04 0.02,0.07 0.02,0.1 0,0.13 -0.097,0.22 -0.236,0.22 -0.174,0 -0.279,-0.12 -0.328,-0.3 -0.048,-0.17 0.042,0.16 -0.264,-1.05 h -0.711 c -0.132,0 -0.223,0 -0.223,-0.15 0,-0.1 0.084,-0.1 0.209,-0.1 h 0.662 l -0.411,-1.64 c -0.042,-0.17 -0.104,-0.42 -0.104,-0.51 0,-0.41 0.348,-0.66 0.745,-0.66 0.773,0 1.212,0.97 1.212,1.06 0,0.09 -0.091,0.09 -0.112,0.09 -0.083,0 -0.09,-0.01 -0.146,-0.13 -0.195,-0.44 -0.55,-0.83 -0.933,-0.83 -0.146,0 -0.244,0.09 -0.244,0.34 0,0.07 0.028,0.22 0.042,0.29 z"
         id="path4749" /></g>    <path
       sodipodi:nodetypes="cc"
       inkscape:connector-curvature="0"
       id="path4784"
       d="M 181.42858,518.07647 C 189.84567,370.85644 305.8276,384.70778 317.14286,385.21933"
       style="fill:none;stroke:#000000;stroke-width:1px;stroke-linecap:butt;stroke-linejoin:miter;stroke-opacity:1;marker-end:url(#Arrow1Lend)" />
    <path
       sodipodi:nodetypes="cc"
       inkscape:connector-curvature="0"
       id="path4784-2"
       d="M 572.14286,576.6479 C 635,449.50504 461.97584,404.96793 453.98985,402.85239"
       style="fill:none;stroke:#000000;stroke-width:1px;stroke-linecap:butt;stroke-linejoin:miter;stroke-opacity:1;marker-end:url(#Arrow1Lend)" />
    <g
       id="g5596"
       transform="matrix(2,0,0,-2,62.055144,1830.8264)"
       xml:space="preserve"
       stroke-miterlimit="10.433"
       font-style="normal"
       font-variant="normal"
       font-weight="normal"
       font-stretch="normal"
       font-size-adjust="none"
       letter-spacing="normal"
       word-spacing="normal"
       ns0:text="$\\vectr{X}$, $\\vectr{V}$, $\\vectr{A}$"
       ns0:preamble="/data/OpenCMISS/cm/doc/latex/texTextPreamble.ini"
       style="font-style:normal;font-variant:normal;font-weight:normal;font-stretch:normal;letter-spacing:normal;word-spacing:normal;text-anchor:start;fill:none;stroke:#000000;stroke-linecap:butt;stroke-linejoin:miter;stroke-miterlimit:10.43299961;stroke-opacity:1;stroke-dasharray:none;stroke-dashoffset:0"><path
         d="m 76.657,688.38 1.313,1.29 0.617,0.62 c 0.397,0.38 0.517,0.5 1.552,0.51 0.189,0 0.209,0.26 0.209,0.29 0,0.06 -0.04,0.18 -0.199,0.18 -0.349,0 -0.727,-0.03 -1.085,-0.03 -0.288,0 -1.005,0.03 -1.293,0.03 -0.08,0 -0.279,0 -0.279,-0.28 0,-0.18 0.159,-0.19 0.249,-0.19 0.298,-0.01 0.557,-0.09 0.597,-0.1 l -1.9,-1.88 -0.916,1.92 c 0.1,0.02 0.408,0.06 0.577,0.06 0.11,0 0.289,0 0.289,0.28 0,0.14 -0.09,0.19 -0.219,0.19 -0.338,0 -1.174,-0.03 -1.512,-0.03 -0.229,0 -0.458,0.01 -0.687,0.01 -0.229,0 -0.467,0.02 -0.696,0.02 -0.09,0 -0.279,0 -0.279,-0.28 0,-0.19 0.129,-0.19 0.408,-0.19 0.139,0 0.249,0 0.388,-0.01 0.139,-0.02 0.149,-0.03 0.209,-0.15 l 1.373,-2.87 -2.497,-2.47 c -0.179,-0.16 -0.388,-0.37 -1.274,-0.38 -0.179,0 -0.348,0 -0.348,-0.29 0,-0.07 0.05,-0.18 0.199,-0.18 0.239,0 0.846,0.03 1.084,0.03 0.289,0 1.005,-0.03 1.294,-0.03 0.079,0 0.278,0 0.278,0.29 0,0.18 -0.179,0.18 -0.258,0.18 -0.199,0 -0.398,0.03 -0.587,0.1 l 2.318,2.3 1.124,-2.34 c -0.01,0 -0.338,-0.06 -0.577,-0.06 -0.099,0 -0.288,0 -0.288,-0.29 0,-0.03 0.01,-0.18 0.219,-0.18 0.338,0 1.183,0.03 1.522,0.03 0.229,0 0.457,-0.01 0.686,-0.01 0.229,0 0.468,-0.02 0.697,-0.02 0.079,0 0.278,0 0.278,0.29 0,0.18 -0.159,0.18 -0.398,0.18 -0.139,0 -0.239,0 -0.388,0.01 -0.149,0.02 -0.159,0.03 -0.229,0.16 z"
         id="path5598"
         inkscape:connector-curvature="0"
         style="fill:#000000;stroke-width:0" /><path
         d="m 83.098,684.46 -0.001,0.06 -0.002,0.06 -0.004,0.05 -0.004,0.06 -0.006,0.05 -0.008,0.05 -0.009,0.05 -0.01,0.05 -0.011,0.05 -0.013,0.04 -0.014,0.05 -0.015,0.04 -0.016,0.04 -0.018,0.04 -0.019,0.04 -0.019,0.03 -0.022,0.03 -0.022,0.04 -0.023,0.02 -0.025,0.03 -0.025,0.03 -0.027,0.02 -0.028,0.02 -0.029,0.02 -0.03,0.02 -0.031,0.01 -0.032,0.01 -0.032,0.02 -0.034,0 -0.035,0.01 -0.036,0 -0.037,0 c -0.348,0 -0.527,-0.26 -0.527,-0.52 0,-0.26 0.169,-0.53 0.527,-0.53 0.159,0 0.279,0.06 0.378,0.14 l 0.02,0.02 c 0.01,0 0.02,-0.01 0.02,-0.15 0,-0.63 -0.279,-1.24 -0.717,-1.71 -0.059,-0.06 -0.069,-0.07 -0.069,-0.11 0,-0.07 0.05,-0.11 0.099,-0.11 0.12,0 0.906,0.79 0.906,1.93 z"
         id="path5600"
         inkscape:connector-curvature="0"
         style="fill:#000000;stroke-width:0" /><path
         d="m 94.717,690.4 0.028,0.04 0.028,0.04 0.029,0.04 0.015,0.02 0.016,0.01 0.017,0.02 0.017,0.02 0.018,0.01 0.019,0.02 0.021,0.02 0.021,0.01 0.023,0.01 0.024,0.02 0.026,0.01 0.028,0.01 0.03,0.02 0.031,0.01 0.033,0.01 0.036,0.01 0.038,0.01 0.04,0 0.042,0.01 0.045,0.01 0.048,0 0.05,0.01 0.027,0 0.027,0 0.028,0 0.028,0.01 0.03,0 0.03,0 0.031,0 0.032,0 c 0.119,0 0.298,0 0.298,0.29 0,0.06 -0.05,0.18 -0.179,0.18 -0.289,0 -0.607,-0.03 -0.906,-0.03 -0.358,0 -0.746,0.03 -1.094,0.03 -0.079,0 -0.269,0 -0.269,-0.29 0,-0.18 0.17,-0.18 0.259,-0.18 0.05,0 0.338,0 0.557,-0.1 l -3.283,-4.77 -0.875,4.65 c -0.01,0.03 -0.02,0.11 -0.02,0.14 0,0.08 0.537,0.08 0.607,0.08 0.219,0 0.378,0 0.378,0.29 0,0.13 -0.1,0.18 -0.219,0.18 -0.249,0 -0.508,-0.02 -0.756,-0.02 -0.239,0 -0.488,-0.01 -0.727,-0.01 -0.229,0 -0.457,0.01 -0.686,0.01 -0.219,0 -0.448,0.02 -0.657,0.02 -0.089,0 -0.278,0 -0.278,-0.29 0,-0.18 0.159,-0.18 0.368,-0.18 0.129,0 0.248,0 0.388,-0.01 0.109,-0.01 0.119,-0.02 0.149,-0.19 l 1.134,-6.04 c 0.05,-0.28 0.159,-0.28 0.348,-0.28 0.279,0 0.329,0.07 0.458,0.26 z"
         id="path5602"
         inkscape:connector-curvature="0"
         style="fill:#000000;stroke-width:0" /><path
         d="m 98.484,684.46 -10e-4,0.06 -0.002,0.06 -0.004,0.05 -0.004,0.06 -0.006,0.05 -0.008,0.05 -0.009,0.05 -0.01,0.05 -0.011,0.05 -0.013,0.04 -0.014,0.05 -0.015,0.04 -0.016,0.04 -0.018,0.04 -0.019,0.04 -0.019,0.03 -0.022,0.03 -0.022,0.04 -0.023,0.02 -0.025,0.03 -0.025,0.03 -0.027,0.02 -0.028,0.02 -0.029,0.02 -0.03,0.02 -0.031,0.01 -0.031,0.01 -0.033,0.02 -0.034,0 -0.035,0.01 -0.036,0 -0.037,0 c -0.348,0 -0.527,-0.26 -0.527,-0.52 0,-0.26 0.169,-0.53 0.527,-0.53 0.159,0 0.279,0.06 0.378,0.14 l 0.02,0.02 c 0.01,0 0.02,-0.01 0.02,-0.15 0,-0.63 -0.279,-1.24 -0.717,-1.71 -0.059,-0.06 -0.069,-0.07 -0.069,-0.11 0,-0.07 0.05,-0.11 0.099,-0.11 0.12,0 0.906,0.79 0.906,1.93 z"
         id="path5604"
         inkscape:connector-curvature="0"
         style="fill:#000000;stroke-width:0" /><path
         d="m 108.97,691.23 0,0.02 -0.01,0.02 0,0.02 -0.01,0.02 0,0.02 0,0.01 -0.01,0.02 0,0.02 -0.01,0.01 -0.01,0.01 0,0.01 -0.01,0.02 -0.01,0.01 0,0.01 -0.01,0 -0.01,0.01 -0.01,0.01 -0.01,0.01 -0.01,0 -0.01,0.01 -0.01,0 -0.02,0.01 -0.01,0 -0.02,0 -0.01,0.01 -0.02,0 -0.02,0 -0.01,0 -0.02,0 -0.02,0 -0.03,0 -0.02,0 c -0.22,0 -0.3,-0.04 -0.44,-0.24 l -3.91,-5.98 c -0.11,-0.18 -0.24,-0.36 -0.96,-0.37 -0.14,0 -0.32,0 -0.32,-0.29 0,-0.08 0.07,-0.18 0.19,-0.18 0.3,0 0.64,0.03 0.95,0.03 0.36,0 0.74,-0.03 1.1,-0.03 0.07,0 0.27,0 0.27,0.29 0,0.18 -0.18,0.18 -0.26,0.18 -0.08,0 -0.36,0 -0.58,0.11 l 0.92,1.39 h 2.68 l -0.07,0.47 h -2.3 l 1.87,2.86 0.43,-2.86 0.07,-0.47 0.23,-1.45 c -0.19,-0.04 -0.5,-0.05 -0.64,-0.05 -0.2,0 -0.37,0 -0.37,-0.29 0,-0.13 0.11,-0.18 0.22,-0.18 0.33,0 1.15,0.03 1.48,0.03 0.23,0 0.46,-0.01 0.69,-0.01 0.22,0 0.46,-0.02 0.69,-0.02 0.09,0 0.28,0 0.28,0.29 0,0.18 -0.15,0.18 -0.4,0.18 -0.14,0 -0.25,0 -0.38,0.01 -0.13,0.01 -0.14,0.02 -0.17,0.19 z"
         id="path5606"
         inkscape:connector-curvature="0"
         style="fill:#000000;stroke-width:0" /></g>    <g
       style="font-style:normal;font-variant:normal;font-weight:normal;font-stretch:normal;letter-spacing:normal;word-spacing:normal;text-anchor:start;fill:none;stroke:#000000;stroke-linecap:butt;stroke-linejoin:miter;stroke-miterlimit:10.43299961;stroke-opacity:1;stroke-dasharray:none;stroke-dashoffset:0"
       ns0:preamble="/data/OpenCMISS/cm/doc/latex/texTextPreamble.ini"
       ns0:text="$\\vectr{x}$, $\\vectr{v}$, $\\vectr{a}$"
       word-spacing="normal"
       letter-spacing="normal"
       font-size-adjust="none"
       font-stretch="normal"
       font-weight="normal"
       font-variant="normal"
       font-style="normal"
       stroke-miterlimit="10.433"
       xml:space="preserve"
       transform="matrix(2,0,0,-2,375.29929,1887.7379)"
       id="g5702"><path
         id="path5704"
         d="m 76.199,688.43 -0.033,-0.01 -0.032,-0.01 -0.031,-0.01 -0.03,-0.01 -0.029,-0.02 -0.028,-0.01 -0.027,-0.02 -0.025,-0.02 -0.025,-0.02 -0.024,-0.02 -0.022,-0.02 -0.022,-0.02 -0.02,-0.02 -0.019,-0.03 -0.019,-0.02 -0.017,-0.02 -0.016,-0.03 -0.016,-0.02 -0.014,-0.03 -0.013,-0.02 -0.012,-0.03 -0.011,-0.02 -0.01,-0.03 -0.009,-0.02 -0.008,-0.03 -0.007,-0.02 -0.005,-0.03 -0.005,-0.02 -0.004,-0.03 -0.002,-0.02 -0.002,-0.03 0,-0.02 c 0,-0.22 0.169,-0.46 0.497,-0.46 0.348,0 0.716,0.29 0.716,0.78 0,0.52 -0.527,0.87 -1.134,0.87 -0.567,0 -0.935,-0.43 -1.064,-0.6 -0.249,0.41 -0.806,0.6 -1.374,0.6 -1.253,0 -1.93,-1.22 -1.93,-1.55 0,-0.14 0.15,-0.14 0.239,-0.14 0.12,0 0.189,0 0.229,0.13 0.289,0.9 1.005,1.2 1.413,1.2 0.378,0 0.557,-0.17 0.557,-0.49 0,-0.19 -0.139,-0.74 -0.229,-1.1 l -0.338,-1.36 c -0.149,-0.6 -0.508,-0.9 -0.846,-0.9 -0.05,0 -0.278,0 -0.477,0.15 0.358,0.1 0.537,0.44 0.537,0.68 0,0.22 -0.169,0.46 -0.498,0.46 -0.348,0 -0.716,-0.29 -0.716,-0.77 0,-0.53 0.527,-0.88 1.134,-0.88 0.567,0 0.935,0.43 1.065,0.61 0.249,-0.42 0.806,-0.61 1.373,-0.61 1.254,0 1.93,1.22 1.93,1.55 0,0.14 -0.149,0.14 -0.239,0.14 -0.119,0 -0.189,0 -0.229,-0.13 -0.288,-0.9 -1.005,-1.2 -1.412,-1.2 -0.378,0 -0.558,0.18 -0.558,0.5 0,0.2 0.13,0.73 0.219,1.1 0.07,0.26 0.299,1.19 0.349,1.35 0.149,0.6 0.497,0.9 0.845,0.9 0.05,0 0.279,0 0.478,-0.15 z"
         inkscape:connector-curvature="0"
         style="fill:#000000;stroke-width:0" /><path
         id="path5706"
         d="m 79.452,684.46 -0.001,0.06 -0.002,0.06 -0.004,0.05 -0.004,0.06 -0.006,0.05 -0.008,0.05 -0.009,0.05 -0.01,0.05 -0.011,0.05 -0.013,0.04 -0.014,0.05 -0.015,0.04 -0.016,0.04 -0.018,0.04 -0.019,0.04 -0.019,0.03 -0.022,0.03 -0.022,0.04 -0.023,0.02 -0.025,0.03 -0.025,0.03 -0.027,0.02 -0.028,0.02 -0.029,0.02 -0.03,0.02 -0.031,0.01 -0.032,0.01 -0.032,0.02 -0.034,0 -0.035,0.01 -0.036,0 -0.037,0 c -0.348,0 -0.527,-0.26 -0.527,-0.52 0,-0.26 0.169,-0.53 0.527,-0.53 0.159,0 0.278,0.06 0.378,0.14 l 0.02,0.02 c 0.01,0 0.02,-0.01 0.02,-0.15 0,-0.63 -0.279,-1.24 -0.717,-1.71 -0.059,-0.06 -0.069,-0.07 -0.069,-0.11 0,-0.07 0.049,-0.11 0.099,-0.11 0.12,0 0.906,0.79 0.906,1.93 z"
         inkscape:connector-curvature="0"
         style="fill:#000000;stroke-width:0" /><path
         id="path5708"
         d="m 88.902,688.05 0,0.04 -0.001,0.04 -0.003,0.04 -0.003,0.04 -0.004,0.03 -0.005,0.04 -0.006,0.03 -0.006,0.04 -0.007,0.03 -0.008,0.03 -0.009,0.03 -0.009,0.03 -0.01,0.02 -0.01,0.03 -0.011,0.03 -0.012,0.02 -0.012,0.02 -0.012,0.03 -0.013,0.02 -0.013,0.02 -0.014,0.02 -0.014,0.02 -0.014,0.01 -0.015,0.02 -0.015,0.02 -0.015,0.01 -0.03,0.03 -0.032,0.03 -0.031,0.02 -0.031,0.02 -0.032,0.02 -0.03,0.01 -0.031,0.01 -0.029,0.01 -0.028,0.01 -0.026,0.01 -0.025,0.01 -0.023,0 -0.021,0.01 -0.018,0 -0.016,0 -0.013,0 -0.01,0 -0.003,0 -0.003,0 -0.002,0 -0.001,0 c -0.398,0 -0.756,-0.42 -0.756,-0.75 0,-0.28 0.209,-0.4 0.298,-0.45 0.418,-0.25 0.498,-0.43 0.498,-0.63 0,-0.21 -0.577,-2.39 -1.741,-2.39 -0.717,0 -0.717,0.6 -0.717,0.77 0,0.58 0.279,1.3 0.597,2.1 0.08,0.2 0.11,0.29 0.11,0.45 0,0.57 -0.577,0.89 -1.125,0.89 -1.054,0 -1.552,-1.35 -1.552,-1.55 0,-0.14 0.15,-0.14 0.239,-0.14 0.12,0 0.189,0 0.229,0.13 0.318,1.07 0.846,1.2 1.025,1.2 0.069,0 0.169,0 0.169,-0.2 0,-0.23 -0.119,-0.52 -0.149,-0.6 -0.458,-1.15 -0.607,-1.6 -0.607,-2.08 0,-1.05 0.855,-1.33 1.721,-1.33 1.711,0 2.437,2.82 2.437,3.68 z"
         inkscape:connector-curvature="0"
         style="fill:#000000;stroke-width:0" /><path
         id="path5710"
         d="m 91.554,684.46 -0.001,0.06 -0.002,0.06 -0.004,0.05 -0.004,0.06 -0.006,0.05 -0.008,0.05 -0.009,0.05 -0.01,0.05 -0.011,0.05 -0.013,0.04 -0.014,0.05 -0.015,0.04 -0.016,0.04 -0.018,0.04 -0.019,0.04 -0.019,0.03 -0.022,0.03 -0.022,0.04 -0.023,0.02 -0.025,0.03 -0.025,0.03 -0.027,0.02 -0.028,0.02 -0.029,0.02 -0.03,0.02 -0.031,0.01 -0.031,0.01 -0.033,0.02 -0.034,0 -0.035,0.01 -0.036,0 -0.037,0 c -0.348,0 -0.527,-0.26 -0.527,-0.52 0,-0.26 0.169,-0.53 0.527,-0.53 0.159,0 0.279,0.06 0.378,0.14 l 0.02,0.02 c 0.01,0 0.02,-0.01 0.02,-0.15 0,-0.63 -0.279,-1.24 -0.717,-1.71 -0.059,-0.06 -0.069,-0.07 -0.069,-0.11 0,-0.07 0.05,-0.11 0.099,-0.11 0.12,0 0.906,0.79 0.906,1.93 z"
         inkscape:connector-curvature="0"
         style="fill:#000000;stroke-width:0" /><path
         id="path5712"
         d="m 100.75,687.6 0,0.02 0.01,0.03 0,0.02 0.01,0.03 0.01,0.05 0.02,0.06 0.01,0.05 0.01,0.06 0.02,0.05 0.01,0.06 0,0.02 0.01,0.03 0.01,0.02 0,0.03 0.01,0.02 0,0.03 0.01,0.02 0,0.02 0,0.02 0.01,0.02 0,0.01 0,0.02 0,0.01 0,0.01 0.01,0.02 0,0.01 c 0,0.31 -0.26,0.43 -0.47,0.43 -0.19,0 -0.39,-0.1 -0.509,-0.25 -0.149,0.16 -0.478,0.42 -1.055,0.42 l 0.02,-0.36 c 0.587,0 0.826,-0.46 0.826,-0.57 l -0.02,-0.14 -0.607,-2.49 c -0.288,-0.34 -0.756,-0.65 -1.233,-0.65 -0.617,0 -0.667,0.54 -0.667,0.75 0,0.52 0.338,1.74 0.497,2.13 0.309,0.73 0.796,0.97 1.204,0.97 l -0.02,0.36 c -1.731,0 -2.805,-1.57 -2.805,-2.93 0,-1.22 0.915,-1.64 1.741,-1.64 0.706,0 1.224,0.39 1.383,0.54 0.378,-0.54 1.035,-0.54 1.145,-0.54 0.37,0 0.66,0.21 0.87,0.57 0.24,0.4 0.37,0.93 0.37,0.98 0,0.14 -0.15,0.14 -0.24,0.14 -0.11,0 -0.15,0 -0.2,-0.05 -0.02,-0.02 -0.02,-0.04 -0.07,-0.29 -0.2,-0.79 -0.43,-0.99 -0.68,-0.99 -0.11,0 -0.23,0.04 -0.23,0.37 0,0.17 0.04,0.32 0.14,0.72 0.07,0.28 0.17,0.68 0.22,0.9 z"
         inkscape:connector-curvature="0"
         style="fill:#000000;stroke-width:0" /></g>    <g
       transform="translate(191.95027,-201.41236)"
       id="g8745">
      <path
         inkscape:connector-curvature="0"
         id="path2987"
         d="m 138,627.50504 c 128.57143,0 134.28571,0 134.28571,0"
         style="fill:none;stroke:#000000;stroke-width:1px;stroke-linecap:round;stroke-linejoin:miter;stroke-opacity:1;marker-end:url(#Arrow2Lend)" />
      <path
         style="fill:none;stroke:#000000;stroke-width:1px;stroke-linecap:butt;stroke-linejoin:miter;stroke-opacity:1;marker-end:url(#Arrow2Lend)"
         d="m 137.86466,627.48032 c 0,-128.57143 0,-134.28571 0,-134.28571"
         id="use4205-3"
         inkscape:connector-curvature="0" />
      <path
         style="fill:none;stroke:#000000;stroke-width:1px;stroke-linecap:butt;stroke-linejoin:miter;stroke-opacity:1;marker-end:url(#Arrow2Lend)"
         d="M 137.9275,627.18948 C 255.16447,574.4059 260.375,572.05996 260.375,572.05996"
         id="use4205-3-7"
         inkscape:connector-curvature="0" />
    </g>
    <g
       style="font-style:normal;font-variant:normal;font-weight:normal;font-stretch:normal;letter-spacing:normal;word-spacing:normal;text-anchor:start;fill:none;stroke:#000000;stroke-linecap:butt;stroke-linejoin:miter;stroke-miterlimit:10.43299961;stroke-opacity:1;stroke-dasharray:none;stroke-dashoffset:0"
       ns0:preamble="/data/OpenCMISS/cm/doc/latex/texTextPreamble.ini"
       ns0:text="$\\rntopology{n}$"
       word-spacing="normal"
       letter-spacing="normal"
       font-size-adjust="none"
       font-stretch="normal"
       font-weight="normal"
       font-variant="normal"
       font-style="normal"
       stroke-miterlimit="10.433"
       xml:space="preserve"
       transform="matrix(2,0,0,-2,197.05426,1688.1285)"
       id="content"><path
         id="path3241"
         d="m 73.532,687.57 v 0.35 2.45 c 0,0.21 0,0.54 0.617,0.54 0.846,0 1.264,-0.35 1.264,-1.52 h 0.348 c 0,0.47 -0.06,1 -0.378,1.41 0.408,-0.09 1.393,-0.4 1.393,-1.4 0,-0.65 -0.299,-1.15 -1.323,-1.34 h 0 c 0.278,0.36 0.308,0.89 0.308,1.33 h -0.348 c 0,-1.28 -0.309,-1.47 -1.881,-1.47 v -0.35 h 0.359 l 1.492,-2.3 c 0.099,-0.16 0.338,-0.55 0.448,-0.7 l 0.258,0.23 -1.791,2.77 c 0.07,0.01 0.11,0.02 0.19,0.02 0.149,0 0.368,0.02 0.517,0.04 0.149,-0.24 1.224,-2.01 2.049,-2.83 h -0.965 l -0.258,-0.23 c 0.069,-0.12 0.099,-0.12 0.328,-0.12 h 1.373 c 0.179,0 0.328,0 0.328,0.18 0,0.08 -0.059,0.15 -0.149,0.17 -0.368,0.08 -0.856,0.73 -1.094,1.05 -0.07,0.1 -0.567,0.76 -1.234,1.83 0.886,0.16 1.741,0.54 1.741,1.72 0,1.38 -1.462,1.86 -2.636,1.86 h -3.124 c -0.18,0 -0.339,0 -0.339,-0.18 0,-0.17 0.189,-0.17 0.269,-0.17 0.567,0 0.617,-0.07 0.617,-0.57 v -4.98 c 0,-0.49 -0.05,-0.56 -0.617,-0.56 -0.08,0 -0.269,0 -0.269,-0.17 0,-0.18 0.159,-0.18 0.339,-0.18 h 2.726 c 0.179,0 0.328,0 0.328,0.18 0,0.17 -0.169,0.17 -0.279,0.17 -0.567,0 -0.607,0.08 -0.607,0.56 l -0.348,-0.02 c 0,-0.09 0,-0.36 0.08,-0.54 h -1.085 c 0.08,0.18 0.08,0.46 0.08,0.54 v 5.02 c 0,0.1 0,0.37 -0.08,0.55 h 1.134 c -0.129,-0.16 -0.129,-0.36 -0.129,-0.51 v -5.06 l 0.348,0.02 z"
         inkscape:connector-curvature="0"
         style="fill:#000000;stroke-width:0" /><path
         id="path3243"
         d="m 78.911,688.5 -0.003,0 -0.003,-0.01 -0.003,-0.01 -0.002,-0.01 -0.003,-0.01 -0.003,-0.01 -0.003,-0.01 -0.003,-0.02 -0.006,-0.02 -0.006,-0.02 -0.005,-0.02 -0.006,-0.02 -0.002,-0.02 -0.003,-0.01 -0.002,-0.01 -0.002,-0.01 -0.002,0 -0.002,-0.01 -0.002,-0.01 -0.002,-0.01 -0.002,-0.01 -0.001,0 -0.001,-0.01 -10e-4,-0.01 -0.001,0 -0.001,-0.01 0,0 0,0 0,0 0,0 c 0,-0.15 0.125,-0.22 0.237,-0.22 0.125,0 0.237,0.09 0.272,0.15 0.034,0.06 0.09,0.28 0.125,0.43 0.035,0.13 0.111,0.45 0.153,0.63 0.042,0.15 0.084,0.3 0.118,0.46 0.077,0.29 0.091,0.34 0.293,0.63 0.195,0.28 0.522,0.64 1.045,0.64 0.404,0 0.41,-0.36 0.41,-0.49 0,-0.42 -0.299,-1.19 -0.41,-1.48 -0.077,-0.19 -0.105,-0.26 -0.105,-0.38 0,-0.36 0.306,-0.59 0.662,-0.59 0.696,0 1.003,0.96 1.003,1.06 0,0.09 -0.091,0.09 -0.112,0.09 -0.097,0 -0.104,-0.04 -0.132,-0.12 -0.16,-0.55 -0.46,-0.84 -0.738,-0.84 -0.147,0 -0.174,0.1 -0.174,0.24 0,0.16 0.034,0.25 0.16,0.57 0.083,0.21 0.369,0.95 0.369,1.34 0,0.67 -0.537,0.79 -0.906,0.79 -0.578,0 -0.968,-0.35 -1.176,-0.63 -0.049,0.48 -0.46,0.63 -0.746,0.63 -0.299,0 -0.459,-0.21 -0.55,-0.37 -0.153,-0.26 -0.251,-0.66 -0.251,-0.69 0,-0.09 0.098,-0.09 0.119,-0.09 0.097,0 0.104,0.02 0.153,0.21 0.104,0.41 0.237,0.75 0.508,0.75 0.182,0 0.23,-0.16 0.23,-0.34 0,-0.13 -0.062,-0.39 -0.111,-0.58 -0.049,-0.19 -0.119,-0.47 -0.154,-0.63 z"
         inkscape:connector-curvature="0"
         style="fill:#000000;stroke-width:0" /></g>    <path
       style="fill:none;stroke:#000000;stroke-width:2;stroke-linecap:butt;stroke-linejoin:miter;stroke-miterlimit:4;stroke-opacity:1;stroke-dasharray:none"
       d="m 318.99775,269.57909 c 25.20405,-18.81448 64.84213,-24.94351 93.57142,-12.14285 19.54575,8.70882 21.95376,37.09772 36.42858,52.85714 12.93003,14.07754 35.45119,19.47823 44.28571,36.42857 9.82429,18.84934 12.04019,43.51526 5,63.57143 -7.02958,20.02594 -24.53105,37.05214 -43.57142,46.42857 -26.18496,12.89478 -58.88518,15.88109 -87.14286,8.57143 -23.52988,-6.08668 -45.86659,-21.65613 -60,-41.42857 -15.82346,-22.13679 -24.08208,-51.42997 -22.14286,-78.57143 1.96752,-27.53756 11.44797,-59.19942 33.57143,-75.71429 z"
       id="path3261-9"
       inkscape:connector-curvature="0"
       sodipodi:nodetypes="aaaaaaaaaa" />
    <g
       style="font-style:normal;font-variant:normal;font-weight:normal;font-stretch:normal;letter-spacing:normal;word-spacing:normal;text-anchor:start;fill:none;stroke:#000000;stroke-linecap:butt;stroke-linejoin:miter;stroke-miterlimit:10.43299961;stroke-opacity:1;stroke-dasharray:none;stroke-dashoffset:0"
       ns0:preamble="/data/OpenCMISS/cm/doc/latex/texTextPreamble.ini"
       ns0:text="$\\manifold{S}$"
       word-spacing="normal"
       letter-spacing="normal"
       font-size-adjust="none"
       font-stretch="normal"
       font-weight="normal"
       font-variant="normal"
       font-style="normal"
       stroke-miterlimit="10.433"
       xml:space="preserve"
       transform="matrix(2,0,0,-2,236.42858,1654.2857)"
       id="g5982"><path
         id="path5984"
         d="m 74.239,689.5 -0.051,-0.02 -0.05,-0.01 -0.05,-0.02 -0.05,-0.02 -0.05,-0.02 -0.05,-0.03 -0.049,-0.02 -0.048,-0.03 -0.047,-0.02 -0.047,-0.03 -0.046,-0.03 -0.045,-0.04 -0.043,-0.03 -0.042,-0.03 -0.041,-0.04 -0.04,-0.04 -0.038,-0.04 -0.036,-0.04 -0.034,-0.04 -0.033,-0.04 -0.031,-0.04 -0.028,-0.05 -0.026,-0.05 -0.024,-0.04 -0.022,-0.05 -0.019,-0.05 -0.016,-0.05 -0.014,-0.06 -0.01,-0.05 -0.008,-0.05 -0.005,-0.06 -0.002,-0.06 c 0,-0.5 0.448,-0.78 0.955,-0.78 0.767,0 1.583,0.32 2.279,0.32 0.796,0 1.224,-0.63 1.224,-1.33 0,-0.46 -0.15,-0.98 -0.468,-1.29 -0.458,-0.46 -1.104,-0.51 -1.741,-0.51 -1.97,0 -3.144,1.69 -3.144,3.5 0,1.15 0.786,2.48 1.96,2.48 0.895,0 1.92,-1.09 2.696,-1.16 0.707,0.26 1.284,0.64 1.483,1.43 l -0.189,0.11 c -0.12,-0.37 -0.319,-0.75 -0.816,-0.75 -0.547,0 -1.323,0.46 -2.289,0.97 -0.925,-0.18 -1.93,-0.56 -2.596,-1.24 -0.687,-0.68 -1.075,-1.57 -1.075,-2.53 0,-0.96 0.388,-1.92 1.065,-2.59 0.547,-0.55 1.333,-0.75 2.089,-0.75 1.771,0 3.761,0.95 3.761,3.02 0,0.82 -0.637,1.32 -1.373,1.32 -0.707,0 -1.851,-0.42 -2.438,-0.42 -0.368,0 -0.636,0.19 -0.636,0.58 0,0.3 0.149,0.59 0.477,0.69 z"
         inkscape:connector-curvature="0"
         style="fill:#000000;stroke-width:0" /></g>  </g>
</svg>
